<svg xmlns="http://www.w3.org/2000/svg" fill="none" viewBox="0 0 40 27"><rect width="40" height="26" y=".949" fill="#F4F5FF" rx="2.518"/><mask id="a" width="40" height="27" x="0" y="0" maskUnits="userSpaceOnUse" style="mask-type:alpha"><rect width="40" height="26" y=".949" fill="#F4F5FF" rx="2.518"/></mask><g fill="#306FC8" mask="url(#a)"><path d="M17.312 19.99v-3.785l-1.723 1.864 1.723 1.92Zm-7.222-3.31v.851l2.464-.005v.976h-2.463v.935h2.762l1.285-1.384-1.234-1.374h-2.813Zm10.467-7.173c.144-.082.232-.247.232-.449a.46.46 0 0 0-.232-.423c-.133-.078-.334-.083-.535-.083h-1.388v1.054h1.373c.216 0 .396-.01.55-.099Zm-18.49.743h1.538l-.771-1.88-.767 1.88Zm17.836 6.43h-1.465v1.187h1.455c.427 0 .694-.207.694-.615-.005-.408-.283-.573-.684-.573Z"/><path d="M2.356 12.166h.966l.438 1.059h3.78v-.806l.34.806h1.954l.34-.816v.816h9.39V11.5h.186c.133 0 .17.016.17.228v1.497h4.854v-.408c.386.212.993.408 1.806.408h2.041l.443-1.059h.967l.437 1.059h3.924v-1.002l.602 1.002h3.152V6.636H35.03v.775l-.448-.775h-3.204v.775l-.39-.775h-4.331c-.73 0-1.373.098-1.883.377v-.377h-2.983v.377c-.35-.284-.787-.377-1.28-.377H9.59l-.74 1.7-.74-1.7H4.675v.775l-.39-.775H1.352L0 9.76v3.465h1.918l.438-1.059Zm22.63-4.048c.36-.377.935-.552 1.712-.552h1.075v1.012h-1.055c-.416 0-.648.062-.869.284-.195.196-.329.573-.329 1.069 0 .506.098.862.319 1.11.165.186.478.242.782.242h.504l1.584-3.717h1.677l1.908 4.471V7.566h1.717l1.975 3.289v-3.29h1.158v4.73h-1.605l-2.124-3.542v3.543h-2.289l-.432-1.059h-2.34l-.432 1.059h-1.306c-.55 0-1.245-.13-1.636-.527-.396-.403-.596-.945-.596-1.802 0-.702.123-1.343.601-1.849Zm-2.305-.552h1.152v4.73h-1.152v-4.73Zm-5.169 0h2.592c.571 0 .993.02 1.353.227.36.212.581.521.581 1.048 0 .749-.504 1.136-.802 1.255.247.093.458.263.555.403.16.227.186.444.186.857v.94h-1.132v-.6c0-.278.026-.691-.185-.913-.16-.17-.406-.207-.818-.207h-1.208v1.72h-1.127v-4.73h.005Zm-4.536 0h3.754v.986h-2.633v.852h2.567v.97h-2.567v.935l2.633-.005v.986h-3.754V7.566Zm-11.742 4.73H.01l2.011-4.73h1.677l1.908 4.471V7.566h1.841l1.466 3.206 1.353-3.206h1.872v4.73h-1.152V8.593l-1.63 3.703h-.988L6.732 8.588v3.708H4.44l-.433-1.059h-2.34l-.432 1.059Z"/><path d="m29.521 8.37-.766 1.88h1.533l-.767-1.88Zm7.988 8.417c-.119.078-.17.191-.17.341 0 .176.103.3.247.351.113.041.242.052.432.052l.602.015c.622.016 1.033.119 1.285.382a.874.874 0 0 1 .093.109v-1.332h-2.042c-.2 0-.34.01-.447.082Z"/><path d="M38.481 20.417h-2.17v-1.012h2.16c.211 0 .36-.03.453-.113a.415.415 0 0 0 .133-.31.396.396 0 0 0-.138-.315c-.083-.072-.201-.103-.391-.103-1.05-.031-2.371.036-2.371-1.467 0-.676.427-1.404 1.61-1.404h2.237v-.93H37.92c-.623 0-1.09.145-1.41.377v-.377h-3.07c-.489 0-1.075.119-1.347.377v-.377h-5.498v.377c-.438-.31-1.173-.377-1.523-.377h-3.626v.377c-.344-.335-1.105-.377-1.573-.377H15.81l-.931 1.012-.864-1.012H7.957v6.589h5.95l.952-1.028.905 1.023 3.662.005v-1.554h.365c.484 0 1.06-.01 1.559-.227v1.781h3.034v-1.725h.15c.184 0 .2.016.2.191v1.534h9.18c.576 0 1.199-.15 1.538-.418v.418h2.911c.602 0 1.198-.088 1.651-.305v-1.223c-.293.402-.807.593-1.533.593Zm-18.649-1.58h-1.399v1.58h-2.19l-1.379-1.554-1.44 1.56H8.965v-4.73h4.526l1.378 1.554 1.435-1.554h3.6c.885 0 1.888.258 1.888 1.564-.005 1.307-.977 1.58-1.96 1.58Zm6.769-.211c.16.227.185.444.19.857v.934H25.66v-.599c0-.278.025-.692-.186-.914-.164-.17-.406-.206-.817-.206h-1.209v1.72h-1.126v-4.73h2.592c.57 0 .987.02 1.352.232.36.212.582.521.582 1.048a1.33 1.33 0 0 1-.797 1.255c.246.093.457.263.55.403Zm4.623-1.947h-2.628v.852h2.572v.976h-2.572v.934h2.634v.982h-3.755v-4.73h3.755v.986h-.006Zm2.86 3.738h-2.19v-1.012h2.18c.21 0 .36-.03.452-.113a.414.414 0 0 0 .134-.31.396.396 0 0 0-.139-.315c-.082-.072-.2-.103-.39-.103-1.05-.031-2.372.036-2.372-1.467 0-.681.427-1.404 1.61-1.404h2.253v1.012h-2.063c-.205 0-.339.005-.452.077-.118.078-.165.191-.165.341 0 .175.103.3.247.351.118.041.242.052.432.052l.602.015c.622.016 1.034.119 1.286.382.22.238.34.512.34 1.002.004 1.012-.623 1.492-1.765 1.492Z"/><path d="M25.37 16.757c-.133-.073-.339-.078-.534-.078h-1.389v1.054h1.373c.216 0 .402-.006.55-.093.145-.083.232-.248.232-.45-.005-.206-.092-.35-.231-.433Z"/></g></svg>