<svg xmlns="http://www.w3.org/2000/svg" fill="none" viewBox="0 0 40 27"><rect width="40" height="26" y=".949" fill="#F4F5FF" rx="2.518"/><path fill="#173C6A" d="M6.177 11.488H4.8v4.886h1.37c.728 0 1.255-.175 1.716-.565a2.466 2.466 0 0 0 .874-1.875c0-1.442-1.061-2.446-2.583-2.446Zm1.096 3.67c-.295.27-.677.388-1.284.388h-.251v-3.23h.251c.607 0 .974.11 1.284.395.325.293.52.748.52 1.216 0 .469-.195.938-.52 1.231Zm2.857-3.67h-.94v4.886h.939v-4.886Zm2.294 1.875c-.563-.211-.728-.351-.728-.615 0-.308.295-.541.699-.541.281 0 .512.117.757.395l.49-.653a2.086 2.086 0 0 0-1.413-.541c-.851 0-1.5.6-1.5 1.4 0 .673.302 1.017 1.183 1.34.367.13.554.219.649.277.187.125.281.3.281.506 0 .396-.31.69-.728.69-.448 0-.809-.228-1.025-.652l-.606.592c.433.645.952.93 1.666.93.975 0 1.659-.658 1.659-1.604 0-.776-.316-1.127-1.384-1.524Zm1.68.572c0 1.436 1.11 2.55 2.539 2.55.404 0 .75-.08 1.176-.285v-1.122c-.375.382-.707.536-1.133.536-.945 0-1.615-.696-1.615-1.686 0-.938.692-1.678 1.572-1.678.447 0 .786.162 1.176.55v-1.122c-.412-.212-.75-.3-1.154-.3a2.55 2.55 0 0 0-2.561 2.557Zm11.156.835-1.284-3.282h-1.025l2.042 5.01h.505l2.078-5.01h-1.017l-1.3 3.282ZM28 16.373h2.661v-.827h-1.723v-1.318h1.66V13.4h-1.66v-1.084h1.723v-.828H28v4.886Zm6.377-3.443c0-.915-.62-1.442-1.703-1.442h-1.39v4.886h.936V14.41h.123l1.298 1.963h1.154l-1.514-2.059c.707-.146 1.096-.637 1.096-1.385Zm-1.882.807h-.274v-1.48h.288c.585 0 .902.25.902.725 0 .49-.317.755-.916.755Z"/><path fill="url(#a)" d="M20.685 16.547c1.413 0 2.56-1.163 2.56-2.599 0-1.435-1.147-2.599-2.56-2.599s-2.559 1.164-2.559 2.6c0 1.435 1.146 2.598 2.56 2.598Z"/><path fill="url(#b)" d="M20.685 16.547c1.413 0 2.56-1.163 2.56-2.599 0-1.435-1.147-2.599-2.56-2.599s-2.559 1.164-2.559 2.6c0 1.435 1.146 2.598 2.56 2.598Z" opacity=".65"/><path fill="#173C6A" d="M34.976 11.671c0-.085-.059-.132-.16-.132h-.136v.43h.1v-.167l.119.166h.123l-.139-.177a.117.117 0 0 0 .093-.12Zm-.178.059h-.017v-.112h.018c.05 0 .076.018.076.055 0 .038-.027.057-.077.057Z"/><path fill="#173C6A" d="M34.836 11.378a.37.37 0 0 0-.368.375.37.37 0 0 0 .368.374.37.37 0 0 0 .364-.374.37.37 0 0 0-.364-.375Zm-.002.682a.3.3 0 0 1-.293-.307.3.3 0 0 1 .293-.307c.161 0 .292.14.292.307a.3.3 0 0 1-.292.307Z"/><defs><linearGradient id="a" x1="21.995" x2="20.184" y1="16.031" y2="13.239" gradientUnits="userSpaceOnUse"><stop stop-color="#F89F21"/><stop offset=".25" stop-color="#F79A23"/><stop offset=".533" stop-color="#F78E22"/><stop offset=".62" stop-color="#F68721"/><stop offset=".723" stop-color="#F48220"/><stop offset="1" stop-color="#F27623"/></linearGradient><linearGradient id="b" x1="21.715" x2="19.061" y1="15.993" y2="10.886" gradientUnits="userSpaceOnUse"><stop stop-color="#F68721" stop-opacity="0"/><stop offset=".359" stop-color="#E27027" stop-opacity=".27"/><stop offset=".703" stop-color="#D4612C" stop-opacity=".53"/><stop offset=".982" stop-color="#D15D2D" stop-opacity=".74"/></linearGradient></defs></svg>