<svg xmlns="http://www.w3.org/2000/svg" fill="none" viewBox="0 0 22 22"><g clip-path="url(#a)"><path fill="#fff" d="M21.495 11.854c0-5.8-4.7-10.5-10.5-10.5-5.799 0-10.5 4.7-10.5 10.5 0 5.24 3.84 9.584 8.86 10.372v-7.337H6.687v-3.035h2.666V9.54c0-2.631 1.568-4.085 3.966-4.085 1.149 0 2.35.205 2.35.205v2.584h-1.323c-1.304 0-1.711.81-1.711 1.64v1.97h2.912l-.466 3.035h-2.446v7.337c5.02-.788 8.86-5.132 8.86-10.372Z"/></g><defs><clipPath id="a"><path fill="#fff" d="M0 0h21v21H0z" transform="translate(.495 .927)"/></clipPath></defs></svg>