<svg xmlns="http://www.w3.org/2000/svg" fill="none" viewBox="0 0 22 23">
  <g clip-path="url(#a)">
    <path fill="#F0F0F0" d="M10.5 22.908c6.075 0 11-4.925 11-11s-4.925-11-11-11-11 4.925-11 11 4.925 11 11 11Z"/>
    <path fill="#D80027" d="M10.021 11.907H21.5c0-.992-.133-1.954-.38-2.87H10.022v2.87ZM10.021 6.168h9.864a11.057 11.057 0 0 0-2.538-2.87h-7.326v2.87ZM10.5 22.908c2.588 0 4.968-.895 6.847-2.391H3.652a10.953 10.953 0 0 0 6.848 2.39ZM1.114 17.647h18.771c.541-.882.96-1.846 1.236-2.87H-.121a10.934 10.934 0 0 0 1.235 2.87Z"/>
    <path fill="#0052B4" d="M4.595 2.626h1.003l-.933.677.357 1.096-.933-.677-.932.677.307-.946A11.06 11.06 0 0 0 1.331 5.83h.321l-.593.432c-.093.154-.182.31-.266.47l.283.872-.529-.384c-.131.278-.252.563-.36.854l.313.96h1.152l-.932.678.356 1.096-.932-.677-.559.406c-.056.449-.085.907-.085 1.371h11v-11c-2.173 0-4.199.63-5.905 1.718Zm.427 8.182-.933-.677-.932.677.356-1.096-.932-.677h1.152l.356-1.096.356 1.096h1.153l-.933.677.357 1.096Zm-.357-4.3.357 1.096-.933-.678-.932.678.356-1.096-.932-.678h1.152l.356-1.096.356 1.096h1.153l-.933.678Zm4.302 4.3-.932-.677-.933.677.357-1.096-.933-.677H7.68l.356-1.096.356 1.096h1.152l-.932.677.356 1.096Zm-.356-4.3.356 1.096-.932-.678-.933.678.357-1.096-.933-.678H7.68l.356-1.096.356 1.096h1.152l-.932.678Zm0-3.205L8.967 4.4l-.932-.677-.933.677.357-1.096-.933-.677H7.68l.356-1.096.356 1.096h1.152l-.932.677Z"/>
  </g>
  <defs>
    <clipPath id="a">
      <path fill="#fff" d="M0 0h22v22H0z" transform="translate(0 .92)"/>
    </clipPath>
  </defs>
</svg>