<svg xmlns="http://www.w3.org/2000/svg" fill="none" viewBox="0 0 21 21"><g clip-path="url(#a)"><path fill="#fff" fill-rule="evenodd" d="M14.531 6.81a5.434 5.434 0 0 0-3.836-1.5c-2.609 0-4.824 1.76-5.614 4.13a5.99 5.99 0 0 0 0 3.83h.003c.794 2.366 3.006 4.126 5.615 4.126 1.347 0 2.503-.345 3.399-.953v-.003a4.63 4.63 0 0 0 1.999-3.038h-5.402V9.55h9.433c.117.669.172 1.352.172 2.032 0 3.041-1.087 5.613-2.978 7.355l.002.001c-1.657 1.529-3.932 2.414-6.629 2.414a10.001 10.001 0 0 1-8.936-5.508 10.009 10.009 0 0 1 0-8.98 9.998 9.998 0 0 1 8.936-5.512 9.611 9.611 0 0 1 6.692 2.602L14.53 6.81Z" clip-rule="evenodd"/></g><defs><clipPath id="a"><path fill="#fff" d="M0 0h20v20H0z" transform="translate(.495 .927)"/></clipPath></defs></svg>