<svg xmlns="http://www.w3.org/2000/svg" fill="none" viewBox="0 0 21 21"><path fill="#fff" d="M10.506 2.73c2.672 0 2.988.012 4.04.058.976.043 1.503.208 1.855.344.465.18.8.399 1.148.746.352.352.567.684.747 1.149.136.352.3.883.343 1.856.047 1.054.059 1.37.059 4.039 0 2.672-.012 2.989-.059 4.04-.043.976-.207 1.503-.343 1.855-.18.465-.399.8-.747 1.149a3.076 3.076 0 0 1-1.148.746c-.352.137-.883.3-1.856.343-1.055.047-1.371.06-4.04.06-2.671 0-2.988-.013-4.039-.06-.976-.043-1.504-.206-1.855-.343a3.108 3.108 0 0 1-1.149-.746 3.076 3.076 0 0 1-.746-1.149c-.137-.352-.3-.883-.344-1.856-.047-1.054-.058-1.37-.058-4.039 0-2.672.011-2.989.058-4.04.043-.976.207-1.503.344-1.855.18-.465.398-.8.746-1.149a3.076 3.076 0 0 1 1.149-.746c.351-.136.883-.3 1.855-.344 1.051-.046 1.368-.058 4.04-.058Zm0-1.801C7.79.929 7.45.94 6.384.988c-1.062.046-1.793.218-2.426.464A4.881 4.881 0 0 0 2.185 2.61a4.9 4.9 0 0 0-1.157 1.77C.782 5.014.61 5.741.563 6.803.517 7.874.505 8.214.505 10.93c0 2.715.012 3.055.058 4.121.047 1.063.22 1.793.465 2.426a4.88 4.88 0 0 0 1.157 1.774 4.889 4.889 0 0 0 1.77 1.152c.636.246 1.363.418 2.425.465 1.067.047 1.407.059 4.122.059s3.055-.012 4.121-.059c1.063-.047 1.793-.219 2.426-.465a4.89 4.89 0 0 0 1.77-1.152 4.888 4.888 0 0 0 1.152-1.77c.247-.637.418-1.363.465-2.426.047-1.066.059-1.406.059-4.121 0-2.715-.012-3.055-.059-4.122-.047-1.062-.218-1.793-.465-2.426a4.685 4.685 0 0 0-1.144-1.777 4.89 4.89 0 0 0-1.77-1.153c-.637-.246-1.363-.418-2.426-.465-1.07-.05-1.41-.062-4.125-.062Z"/><path fill="#fff" d="M10.506 5.793a5.138 5.138 0 0 0 0 10.274 5.138 5.138 0 0 0 5.137-5.137 5.138 5.138 0 0 0-5.137-5.137Zm0 8.47a3.333 3.333 0 1 1 0-6.666 3.333 3.333 0 0 1 0 6.665Zm6.539-8.673a1.2 1.2 0 1 1-2.399-.001 1.2 1.2 0 0 1 2.4 0Z"/></svg>