<svg xmlns="http://www.w3.org/2000/svg" fill="none" viewBox="0 0 40 27"><rect width="40" height="26" y="1.354" fill="#F4F5FF" rx="2.518"/><path fill="#fff" fill-rule="evenodd" d="M30.384 19.198c0 1.811-1.445 3.28-3.23 3.28H9.616V9.51c0-1.812 1.446-3.281 3.23-3.281h17.538v12.969Z" clip-rule="evenodd"/><path fill="url(#a)" fill-rule="evenodd" d="M24.666 14.639h1.37l.023.002.022.002a1.383 1.383 0 0 1 .08.01l.009.003a.561.561 0 0 1 .2.09.571.571 0 0 1 .156.158.594.594 0 0 1 .09.209.658.658 0 0 1-.112.528.589.589 0 0 1-.334.216l-.009.002a.221.221 0 0 1-.013.003l-.023.004-.022.002a.756.756 0 0 1-.067.006h-.022l-.012.001h-1.336v-1.236Zm1.794-1.4a.62.62 0 0 1-.067.433.524.524 0 0 1-.2.194.476.476 0 0 1-.112.048l-.022.006a.426.426 0 0 1-.045.01h-.005a.374.374 0 0 1-.062.008l-.022.002a.88.88 0 0 1-.044.001h-1.215v-1.14h1.237a.88.88 0 0 1 .106.01h.005a.55.55 0 0 1 .223.092.509.509 0 0 1 .134.132.524.524 0 0 1 .089.204Zm2.761-5.917h.01v11.72a2.417 2.417 0 0 1-.21.976 2.611 2.611 0 0 1-.134.253l-.022.036a2.034 2.034 0 0 1-.089.131l-.022.03-.023.029-.022.028-.022.027-.022.027-.023.025-.022.025a1.736 1.736 0 0 1-.044.048l-.023.023-.022.022-.022.022-.023.02a1.058 1.058 0 0 1-.044.04l-.022.02-.023.02-.022.018-.022.019-.023.017a1.892 1.892 0 0 1-.022.018l-.022.016-.022.017-.023.016-.022.015-.022.015-.022.015a1.057 1.057 0 0 1-.045.029l-.022.014-.023.013-.022.013a1.61 1.61 0 0 1-.067.037l-.022.012a1.546 1.546 0 0 1-.067.033l-.022.01-.022.011-.023.01-.022.01-.022.01-.022.008-.023.01-.022.008-.022.008-.023.008-.022.008-.022.007-.022.008a1.894 1.894 0 0 1-.022.007l-.023.006-.022.007-.022.006-.023.006-.022.006-.022.005-.023.006a1.764 1.764 0 0 1-.022.005l-.022.005-.022.004-.023.005c-.007 0-.014.002-.022.004l-.022.003-.022.004-.023.004-.022.003-.022.003c-.008 0-.015.002-.022.003l-.023.002-.022.003c-.007 0-.015 0-.022.002a1.54 1.54 0 0 1-.023.002l-.022.001-.022.002h-.022l-.023.002h-.022l-.022.001h-3.434v-4.777h3.612l.022-.001h.023l.022-.002h.022l.022-.002.023-.002.022-.001.022-.002.022-.003.023-.002.022-.003.022-.003c.008 0 .015-.002.022-.003l.023-.004.022-.003.022-.005.023-.004.022-.005.022-.004.023-.006.022-.005.022-.006.022-.006.023-.006.022-.007.022-.007.022-.008.023-.007.022-.009.022-.008a1.479 1.479 0 0 0 .112-.049l.022-.01a1.558 1.558 0 0 0 .067-.037l.022-.013.022-.014.023-.014a1.741 1.741 0 0 0 .133-.102.853.853 0 0 0 .09-.086 1.288 1.288 0 0 0 .11-.144 1.131 1.131 0 0 0 .09-.172 1.013 1.013 0 0 0 .067-.256 1.144 1.144 0 0 0-.023-.411.95.95 0 0 0-.223-.413.848.848 0 0 0-.044-.047l-.022-.021-.023-.02a1.066 1.066 0 0 0-.022-.02l-.022-.018a1.908 1.908 0 0 0-.09-.066l-.021-.014-.023-.014a.817.817 0 0 0-.089-.05l-.022-.011-.022-.01a.897.897 0 0 0-.045-.021l-.022-.01a2.088 2.088 0 0 0-.045-.017l-.022-.009-.022-.008-.023-.007a1.455 1.455 0 0 0-.022-.007l-.022-.007-.023-.007a1.852 1.852 0 0 0-.022-.006l-.022-.006a7.13 7.13 0 0 0-.022-.006l-.022-.005-.023-.006a8.242 8.242 0 0 0-.044-.01l-.023-.004-.022-.004a1.478 1.478 0 0 0-.022-.003l-.023-.004-.022-.003-.022-.003-.022-.003-.023-.003-.022-.002-.022-.002-.022-.002-.02-.002-.001-.027.02-.003.023-.004.022-.004.022-.004.023-.005.022-.005.022-.005.022-.005.023-.007a.815.815 0 0 0 .022-.006l.022-.006a1.44 1.44 0 0 0 .045-.015l.022-.008.023-.008a.851.851 0 0 0 .044-.018l.022-.01a1.14 1.14 0 0 0 .045-.02l.022-.011.022-.012a4.476 4.476 0 0 0 .09-.053 1.086 1.086 0 0 0 .066-.047l.023-.018a.98.98 0 0 0 .178-.181 1.071 1.071 0 0 0 .133-.236 1.009 1.009 0 0 0 .073-.385 1.166 1.166 0 0 0-.05-.33.957.957 0 0 0-.468-.557 1.168 1.168 0 0 0-.022-.012l-.023-.012-.022-.011-.022-.011a.758.758 0 0 0-.023-.01l-.022-.01-.022-.01-.022-.009-.022-.009-.023-.008-.022-.008a1.456 1.456 0 0 0-.022-.007l-.023-.007-.022-.007a.815.815 0 0 0-.045-.012l-.022-.006-.022-.005a.803.803 0 0 0-.022-.005l-.023-.005-.022-.005-.022-.004-.022-.004-.023-.004-.022-.003-.022-.003-.022-.003-.023-.003-.022-.002-.022-.003-.023-.002-.022-.001-.022-.002-.022-.001h-.01l-.013-.002-.022-.001-.022-.001-.023-.001-.022-.002h-.022l-.022-.001-.023-.001h-3.322V9.665a2.394 2.394 0 0 1 .293-1.143 2.712 2.712 0 0 1 .067-.114l.022-.035a3.49 3.49 0 0 1 .022-.033l.023-.033a2.041 2.041 0 0 1 .111-.146l.023-.027.022-.025.022-.026.022-.024.023-.024.022-.023.022-.022.022-.022.023-.021.022-.021.022-.02.022-.02.023-.019a2.122 2.122 0 0 1 .044-.037l.023-.018.022-.017a1.863 1.863 0 0 1 .044-.033l.023-.016.022-.016.022-.015.023-.015.022-.015.022-.014a1.781 1.781 0 0 1 .045-.027l.022-.014.022-.012.022-.013.023-.012.022-.012.022-.011.023-.012.022-.01.022-.011.022-.01.023-.01.022-.01.022-.01.022-.009.023-.009.022-.008.022-.009.022-.008.023-.008.022-.007.022-.008.023-.007.022-.006.022-.007.022-.006.023-.007.022-.005.022-.006.023-.005.022-.005.022-.005.022-.005.023-.004.022-.005.022-.003.022-.004.023-.004.022-.003.022-.003.023-.003.022-.002.022-.003.022-.002.023-.002.022-.002.022-.001.022-.002h.023l.022-.001.022-.001h3.43Z" clip-rule="evenodd"/><path fill="url(#b)" fill-rule="evenodd" d="m10.817 15.478-.047-.023V9.666a2.389 2.389 0 0 1 .359-1.256 2.368 2.368 0 0 1 .044-.068l.022-.033a2.082 2.082 0 0 1 .067-.09l.022-.028a2.84 2.84 0 0 1 .045-.054 2.253 2.253 0 0 1 .111-.122l.022-.023.022-.022.023-.02.022-.022.022-.02.022-.02.022-.019.023-.018.022-.019.022-.017a3.354 3.354 0 0 1 .045-.035l.022-.016a3.447 3.447 0 0 1 .089-.062l.022-.015.022-.014.022-.014.023-.013c.007-.005.014-.01.022-.013l.022-.013.022-.013.023-.012.022-.012.022-.011.022-.011.023-.011.022-.01.022-.011.022-.01.023-.01.022-.01.022-.009.022-.009.022-.008.023-.009.022-.008.022-.008.022-.007.023-.008.022-.007.022-.007.022-.006.023-.007.022-.006.022-.006.022-.005.023-.006.022-.005.022-.005.022-.004.022-.005.023-.004.022-.004.022-.004c.008 0 .015-.002.022-.003l.023-.003.022-.004.022-.002.022-.003c.008 0 .015-.002.023-.003.007 0 .014 0 .022-.002l.022-.002.022-.001.023-.002.022-.001.022-.001.022-.001.022-.001h3.443V19.04a2.41 2.41 0 0 1-.218.998 2.483 2.483 0 0 1-.09.172l-.022.039a2.214 2.214 0 0 1-.2.286l-.022.027-.022.026-.023.025-.022.025-.022.024-.022.023-.022.022a2.313 2.313 0 0 1-.023.022l-.022.022-.022.02a2.137 2.137 0 0 1-.022.021l-.023.02-.022.02-.022.018-.022.018-.023.018-.022.018-.022.017-.022.016-.023.017-.022.015-.022.016-.022.015-.022.015-.023.014-.022.014-.022.013a1.644 1.644 0 0 1-.09.051l-.021.012-.023.012a1.546 1.546 0 0 1-.022.011l-.022.011-.022.011-.023.01-.022.01-.022.01-.022.01-.022.01-.023.008-.022.009a2.026 2.026 0 0 1-.022.009l-.022.008-.023.008-.022.007-.022.008-.022.007-.023.007-.022.006-.022.007a1.832 1.832 0 0 1-.022.006l-.023.006-.022.006a1.796 1.796 0 0 1-.022.005l-.022.005-.022.005-.023.005-.022.005a1.736 1.736 0 0 1-.022.004l-.022.004a1.48 1.48 0 0 1-.023.004l-.022.003-.022.004-.022.003c-.008 0-.015.002-.023.003l-.022.002-.022.003-.022.002-.022.002-.023.002-.022.002h-.022l-.022.002-.023.001h-.022l-.022.001H10.77v-4.939l.047.013.022.006.023.005.022.006.022.005.022.005.023.006.022.005.022.005.022.005.023.004.022.005.022.005.022.005.023.004.022.005.022.004.022.005.022.004.023.005.022.004.022.004.022.004.023.005.022.004.022.004.022.003.023.004.022.004.022.004.022.004.023.003.022.004.022.004.022.003.022.004.023.003.022.004.022.003.022.003.023.004.022.003.022.003.022.003.023.003.022.003.022.003.022.003.022.003.023.003.022.002.022.003.022.003.023.003.022.002.022.003.022.002.023.003.022.002.022.002.022.003.023.002.022.002.022.002.022.002.022.002.023.002.022.002.022.002.022.002.023.002.022.001.022.002.022.002.023.001.022.002.022.001.022.002.023.001.022.002h.022l.022.002.022.001.023.002h.022l.022.002h.022l.023.002h.022l.022.001.022.001h.023l.022.002h.044l.023.001h.022l.022.001h.044l.023.001h.244l.022-.001h.023l.022-.001h.022l.022-.002h.023l.022-.001.022-.001.022-.001.023-.001.022-.001.022-.001.022-.002h.023l.022-.002.022-.002.022-.001.022-.002.023-.002.022-.001.022-.002.022-.002.023-.002.022-.002.022-.003.022-.002.023-.002.022-.003.022-.002.022-.003.023-.003.022-.003.022-.003.022-.003.022-.003c.008 0 .015-.002.023-.003l.022-.004.022-.003.022-.004c.008 0 .015-.002.023-.003l.022-.004.022-.004.022-.004.023-.004.022-.005.022-.004.022-.005.023-.004.022-.005.022-.005.022-.005.022-.005.023-.006.022-.005.022-.006.022-.006.023-.006.022-.006.022-.006.022-.007.023-.006.022-.007.022-.007.022-.008.022-.007.023-.008.022-.007.022-.009.022-.008.023-.008.022-.009.022-.009.022-.009.023-.01.022-.009.022-.01.022-.01.023-.01.022-.012.022-.01.022-.012.022-.012.023-.012a2.469 2.469 0 0 0 .133-.08l.022-.015.023-.016a1.27 1.27 0 0 0 .022-.016l.022-.016.022-.017.023-.018.022-.018.022-.019.022-.02.022-.02a1.11 1.11 0 0 0 .09-.089l.022-.025a1.802 1.802 0 0 0 .066-.082l.023-.03a1.672 1.672 0 0 0 .11-.183 1.446 1.446 0 0 0 .112-.28 1.903 1.903 0 0 0 .067-.351c.007-.077.01-.155.01-.234V12.1h-1.983v2.72a1.44 1.44 0 0 1-.05.368 1.101 1.101 0 0 1-.222.412 1.284 1.284 0 0 1-.111.108.968.968 0 0 1-.045.035l-.022.016a1.234 1.234 0 0 1-.067.043l-.022.013a1.575 1.575 0 0 1-.133.064.858.858 0 0 1-.045.017l-.022.008-.022.007-.022.007-.023.007-.022.006a.72.72 0 0 1-.089.02l-.022.004a.797.797 0 0 1-.022.004l-.023.003-.022.004-.022.002-.022.003-.022.002-.023.002-.022.002h-.022l-.022.002h-.023l-.022.001h-.112l-.022-.001h-.023l-.022-.002h-.022l-.022-.002-.022-.001-.023-.002-.022-.001-.022-.002-.022-.002-.023-.002-.022-.002-.022-.003-.022-.002-.023-.003-.022-.002-.022-.003-.022-.003-.023-.003-.022-.004-.022-.003-.022-.003-.022-.004-.023-.004-.022-.004-.022-.004-.022-.004-.023-.004-.022-.005-.022-.005-.022-.004-.023-.005-.022-.005-.022-.005-.022-.005-.023-.006-.022-.005-.022-.006-.022-.005-.022-.006-.023-.006-.022-.006-.022-.007-.022-.006-.023-.006-.022-.007-.022-.007-.022-.006-.023-.007-.022-.007-.022-.007-.022-.008-.022-.007-.023-.007-.022-.008-.022-.008-.022-.008-.023-.008-.022-.008-.022-.008-.022-.008-.023-.009-.022-.008-.022-.009-.022-.008-.023-.01-.022-.008-.022-.01-.022-.008-.022-.01-.023-.01-.022-.009-.022-.01-.022-.009-.023-.01-.022-.01-.022-.01-.022-.01-.023-.01-.022-.01-.022-.01-.022-.01-.023-.011-.022-.011Z" clip-rule="evenodd"/><path fill="url(#c)" fill-rule="evenodd" d="M17.202 12.694a2.109 2.109 0 0 0-.048.04V9.667a2.394 2.394 0 0 1 .293-1.142 1.964 1.964 0 0 1 .11-.182l.023-.032.022-.031.023-.03.022-.03.022-.028a1.706 1.706 0 0 1 .044-.054l.023-.026.022-.025a5.34 5.34 0 0 1 .044-.048l.023-.023.022-.023.022-.022.022-.02.023-.022.022-.02a3.29 3.29 0 0 1 .111-.093l.022-.018a3.63 3.63 0 0 1 .111-.08l.023-.015.022-.015.022-.014.022-.014.023-.013.022-.013.022-.013.022-.013.023-.012.022-.012.022-.011.022-.011.022-.011.023-.01.022-.011.022-.01.022-.01.023-.01.022-.009.022-.009.022-.008.023-.009.022-.008.022-.008.022-.007.023-.008.022-.007.022-.007.022-.006.023-.006.022-.007.022-.006.022-.005.022-.006.023-.005.022-.005.022-.004.022-.005.023-.004.022-.004.022-.004c.008 0 .015-.002.022-.003l.023-.003.022-.004.022-.002.022-.003c.008 0 .015-.002.023-.003.007 0 .014 0 .022-.002l.022-.002.022-.001.022-.002.023-.001.022-.001.022-.001.022-.001h3.443V19.04a2.405 2.405 0 0 1-.24 1.044 2.611 2.611 0 0 1-.067.126l-.023.039a2.73 2.73 0 0 1-.044.071l-.022.034a2.33 2.33 0 0 1-.023.033l-.022.031a2.16 2.16 0 0 1-.089.117l-.022.027a5.152 5.152 0 0 1-.044.051l-.023.024a1.718 1.718 0 0 1-.022.024l-.022.024-.022.022-.023.022-.022.022-.022.02-.022.02-.023.02-.022.02-.022.02-.022.017-.023.018-.022.018-.022.017-.022.016-.022.017-.023.015-.022.016-.022.015-.022.015-.023.014-.022.014-.022.013-.022.014-.023.012-.022.013-.022.012-.022.012-.023.012-.022.011-.022.011-.022.01-.022.011-.023.01-.022.01-.022.01-.023.01-.022.008-.022.009-.022.009-.022.008-.023.008-.022.007a1.916 1.916 0 0 1-.022.008l-.022.007-.023.007-.022.006-.022.007-.022.006-.023.006-.022.006-.022.005-.022.005-.023.005-.022.005-.022.005-.022.004-.022.004-.023.004-.022.003-.022.004-.022.003c-.008 0-.015.002-.023.003a.838.838 0 0 1-.044.005l-.022.002-.023.002-.022.002-.022.002h-.022l-.023.002-.022.001h-.022l-.022.001h-3.428v-5.41a2.109 2.109 0 0 0 .093.075l.022.018.022.016.022.016.023.016.022.016.022.015.022.014a2.144 2.144 0 0 0 .045.029l.022.014.022.013.022.013.023.013.022.012.022.013.022.012.023.011.022.012.022.011.022.01.023.012.022.01.022.01.022.01.022.01.023.01.022.01.022.009.022.009.023.009.022.008.022.009.022.008.023.008.022.008.022.008.022.007.022.008.023.007.022.008.022.006.022.007.023.007.022.007.022.006.022.006.023.006.022.006.022.006.022.006.023.006.022.005.022.006.022.005.022.005.023.005.022.005.022.005.022.005.023.004.022.005.022.004.022.004.023.005.022.004.022.004.022.004.023.003.022.004.022.004.022.003.023.003.022.004.022.003.022.003.022.003.023.003.022.003.022.003.022.002.023.003.022.003.022.002.022.003.023.002.022.002.022.002.022.002.023.002.022.002.022.002.022.002.022.002.023.001.022.002.022.001.022.002.023.001.022.002h.022l.022.002.023.001.022.001.022.001h.022l.023.002h.022l.022.001.022.001h.022l.023.001h.022l.022.001h.045l.022.001h.267l.022-.001h.022l.022-.001h.023l.022-.001h.022l.022-.002h.022l.023-.001h.022l.022-.002h.023l.022-.002h.022l.022-.002.022-.001.023-.001.022-.002.022-.001.022-.002.023-.001.022-.002.022-.002.022-.001.022-.002.023-.002.022-.002.022-.002.023-.002.022-.002.022-.003.022-.002.022-.002.023-.003.022-.002.022-.003.022-.002.023-.003.022-.003.022-.002.022-.003.022-.003.023-.003.022-.003.022-.003.023-.003.022-.003.022-.004.022-.003.022-.003.023-.003.022-.004.022-.003.022-.004.023-.003.022-.004.022-.004.022-.003.022-.004.023-.004.022-.004.022-.004.023-.003.022-.004.022-.004.022-.005.022-.003.023-.005.022-.004.022-.004.022-.004.023-.005.022-.004.022-.004.022-.005.023-.004.022-.005.022-.005.022-.004.023-.005.022-.005.022-.004.022-.005.022-.005.023-.005.022-.005.022-.005.022-.005.023-.005.022-.005.022-.005.022-.006.023-.005.022-.005.022-.006v-.991l-.022.01-.022.012-.023.01-.022.012-.022.01-.022.011-.023.011-.022.01-.022.011-.022.01-.023.01-.022.01-.022.01-.022.01-.022.01-.023.01-.022.01-.022.009-.022.009-.023.009-.022.009-.022.009-.022.008-.023.01-.022.008-.022.008-.022.008-.023.008-.022.008-.022.008-.022.008-.022.008-.023.007-.022.007-.022.008-.023.007-.022.007-.022.006-.022.007-.022.007-.023.006-.022.006-.022.007-.022.006-.023.005-.022.006-.022.006-.022.006-.023.005-.022.005-.022.005-.022.005-.023.005-.022.005-.022.005-.022.004-.022.005-.023.004-.022.004-.022.004-.022.004-.023.004-.022.004-.022.003-.022.003-.023.004-.022.003-.022.003-.022.003-.023.003-.022.002-.022.003-.022.002-.022.003-.023.002-.022.002-.022.002-.022.002h-.014l-.009.002-.022.001-.022.002h-.022l-.023.002h-.022l-.022.002h-.045l-.022.001h-.111l-.022-.001-.022-.001h-.023l-.022-.002-.022-.002-.022-.001-.023-.002-.022-.002-.022-.002-.022-.002-.023-.003-.022-.003-.022-.003-.022-.003c-.008 0-.015-.002-.022-.003l-.023-.004-.022-.004-.022-.004-.022-.004a1.754 1.754 0 0 1-.023-.005l-.022-.005a.804.804 0 0 1-.022-.005l-.022-.005a.801.801 0 0 1-.045-.012l-.022-.006-.022-.006a1.88 1.88 0 0 1-.022-.007l-.023-.007a.833.833 0 0 1-.022-.008l-.022-.007a1.453 1.453 0 0 1-.022-.008l-.023-.009-.022-.009-.022-.009-.022-.01c-.008-.002-.015-.006-.023-.009l-.022-.01-.022-.011a2.308 2.308 0 0 1-.044-.023l-.023-.012-.022-.013a1.624 1.624 0 0 1-.022-.013l-.022-.013a1.676 1.676 0 0 1-.045-.029l-.022-.015a1.26 1.26 0 0 1-.045-.033l-.022-.017a.968.968 0 0 1-.022-.018l-.022-.019a1.425 1.425 0 0 1-.312-.394 1.664 1.664 0 0 1-.11-.276 1.642 1.642 0 0 1-.068-.355 2.263 2.263 0 0 1 .023-.572 1.772 1.772 0 0 1 .11-.373 1.323 1.323 0 0 1 .179-.3l.022-.027a1.395 1.395 0 0 1 .156-.16l.022-.018a1.341 1.341 0 0 1 .044-.036l.023-.016a.89.89 0 0 1 .022-.016l.022-.016a1.066 1.066 0 0 1 .045-.029l.022-.013.022-.013.022-.013a.79.79 0 0 1 .067-.035l.022-.01.022-.01.023-.01.022-.01.022-.01.022-.008.023-.008.022-.008.022-.008a5.788 5.788 0 0 1 .067-.021l.022-.007.022-.006.023-.006.022-.006.022-.005.022-.005.022-.005.023-.005.022-.004.022-.004.022-.004a1.48 1.48 0 0 1 .023-.004l.022-.003.022-.003.022-.003.022-.003.023-.003.022-.002.022-.002.023-.002.022-.002.022-.001.022-.002.022-.001h.023l.022-.002h.044l.023-.001h.111l.022.001.022.001.023.001.022.001.022.002.022.001.022.002h.01l.013.001.022.002.022.002.022.002.023.002.022.003.022.002.022.002.022.003.023.003.022.003.022.003.023.003.022.003.022.004.022.003.022.004.023.003.022.004.022.004.022.004.023.005.022.004.022.004.022.005.022.005.023.005.022.005.022.005.023.005.022.005.022.006.022.005.022.006.023.006.022.006.022.006.022.007.023.006.022.007.022.006.022.007.022.007.023.007.022.007.022.008.023.007.022.008.022.008.022.007.022.008.023.009.022.008.022.008.022.009.023.008.022.01.022.008.022.01.023.008.022.01.022.01.022.009.023.01.022.01.022.009.022.01.022.01.023.01.022.01.022.011.022.011.023.01.022.011.022.012.022.01.023.012.022.011.022.011v-.992l-.022-.005-.022-.006-.023-.005-.022-.006-.022-.005-.022-.005-.023-.005-.022-.005-.022-.005-.022-.005-.023-.005-.022-.005-.022-.005-.022-.004-.022-.005-.023-.005-.022-.004-.022-.005-.022-.005-.023-.004-.022-.004-.022-.005-.022-.004-.023-.004-.022-.005-.022-.004-.022-.004-.023-.004-.022-.004-.022-.004-.022-.004-.022-.004-.023-.004-.022-.004-.022-.004-.023-.004-.022-.004-.022-.003-.022-.004-.022-.003-.023-.004-.022-.003-.022-.004-.022-.003-.023-.004-.022-.003-.022-.003-.022-.003-.023-.003-.022-.003-.022-.003-.022-.003-.023-.003-.022-.003-.022-.003-.022-.003-.022-.003-.023-.002-.022-.003-.022-.002-.022-.003-.023-.002-.022-.003-.022-.002-.022-.002-.023-.002-.022-.002-.022-.003-.022-.002-.023-.001-.022-.002-.022-.002-.022-.002-.022-.001-.023-.002-.022-.001-.022-.002-.022-.001-.023-.001-.022-.002h-.022l-.011-.001h-.011l-.023-.002h-.022l-.022-.002h-.022l-.023-.001h-.022l-.022-.002h-.044l-.023-.001h-.022l-.022-.001h-.022l-.023-.001h-.089l-.022-.001h-.155l-.023.001h-.044l-.022.001-.023.001h-.022l-.022.001-.022.001h-.023l-.022.002h-.022l-.022.002h-.022l-.023.002h-.022l-.022.002-.022.002h-.023l-.022.002-.022.002-.022.001-.023.002-.022.002-.022.002-.022.002-.023.001-.022.002-.022.002-.022.003-.022.002-.023.002-.022.003-.022.002-.022.003-.023.002-.022.003-.022.003-.022.003-.023.003-.022.003-.022.003-.022.003-.023.003-.022.004-.022.003-.022.004-.022.004-.023.003-.022.004-.022.004-.022.004-.023.004-.022.005-.022.004-.022.005-.023.004-.022.005-.022.005-.022.005-.023.005-.022.005-.022.005-.022.005-.022.006-.023.006-.022.005-.022.006-.022.006-.023.007-.022.006-.022.006-.022.007-.023.007-.022.006-.022.007-.022.008-.023.007-.022.007-.022.008-.022.008-.022.008-.023.008-.022.008-.022.009-.022.008-.023.01-.022.008-.022.01-.022.009-.023.01-.022.01-.022.01-.022.01-.023.01a4.695 4.695 0 0 0-.022.011l-.022.01-.022.012-.022.012a1.55 1.55 0 0 0-.045.023l-.022.013-.022.012-.023.013-.022.013-.022.013-.022.014a1.665 1.665 0 0 0-.045.029l-.022.014-.022.015-.023.016-.022.016-.022.016a1.282 1.282 0 0 0-.089.07Z" clip-rule="evenodd"/><defs><linearGradient id="a" x1="23.538" x2="29.231" y1="14.354" y2="14.354" gradientUnits="userSpaceOnUse"><stop stop-color="#007B40"/><stop offset="1" stop-color="#55B330"/></linearGradient><linearGradient id="b" x1="10.77" x2="16.462" y1="14.354" y2="14.354" gradientUnits="userSpaceOnUse"><stop stop-color="#1D2970"/><stop offset="1" stop-color="#006DBA"/></linearGradient><linearGradient id="c" x1="17.154" x2="22.846" y1="14.354" y2="14.354" gradientUnits="userSpaceOnUse"><stop stop-color="#6E2B2F"/><stop offset="1" stop-color="#E30138"/></linearGradient></defs></svg>