<svg xmlns="http://www.w3.org/2000/svg" fill="none" viewBox="0 0 40 27"><rect width="40" height="26" y=".949" fill="#F4F5FF" rx="2.518"/><path fill="#6C6BBD" d="M23.5 20.338h-7V7.562h7v12.776Z"/><path fill="#EB001B" d="M16.948 13.949a8.16 8.16 0 0 1 3.055-6.388 7.888 7.888 0 0 0-4.944-1.737c-4.417 0-7.998 3.637-7.998 8.125 0 4.487 3.58 8.125 7.998 8.125 1.867 0 3.584-.65 4.944-1.738a8.158 8.158 0 0 1-3.055-6.387Z"/><path fill="#0099DF" d="M32.94 13.949c0 4.487-3.582 8.125-8 8.125a7.89 7.89 0 0 1-4.944-1.738 8.156 8.156 0 0 0 3.056-6.387c0-2.592-1.195-4.9-3.056-6.388a7.89 7.89 0 0 1 4.944-1.737c4.418 0 8 3.637 8 8.125Z"/><path fill="#fff" d="M27.212 12.559c.114 0 .279.022.404.072l-.175.544a.91.91 0 0 0-.355-.066c-.372 0-.558.244-.558.682v1.49h-.569v-2.655h.563v.322c.148-.233.362-.39.69-.39Zm-2.102.594h-.93v1.2c0 .266.093.444.378.444.147 0 .333-.05.502-.15l.164.494c-.18.128-.464.206-.71.206-.673 0-.908-.367-.908-.983v-1.21h-.53v-.528h.53v-.806h.574v.806h.93v.527Zm-7.279.567c.06-.384.29-.645.695-.645.366 0 .601.233.662.645H17.83Zm1.947.233c-.005-.828-.508-1.394-1.241-1.394-.766 0-1.302.566-1.302 1.394 0 .844.558 1.393 1.34 1.393.394 0 .755-.1 1.072-.372l-.28-.427a1.231 1.231 0 0 1-.76.277c-.365 0-.699-.172-.78-.65h1.94c.006-.072.011-.143.011-.221Zm2.499-.65c-.159-.1-.48-.228-.814-.228-.312 0-.498.117-.498.312 0 .177.197.227.442.26l.268.039c.57.084.914.328.914.794 0 .506-.438.867-1.192.867-.427 0-.82-.111-1.132-.345l.267-.45c.192.15.477.278.87.278.389 0 .596-.116.596-.322 0-.15-.147-.233-.459-.277l-.268-.04c-.585-.083-.902-.35-.902-.782 0-.528.426-.85 1.088-.85.416 0 .793.095 1.066.278l-.246.466Zm7.013-.196a.848.848 0 0 0-.326.063.78.78 0 0 0-.433.445.924.924 0 0 0-.063.347c0 .126.02.241.063.346a.782.782 0 0 0 .433.446c.1.042.209.062.326.062.117 0 .226-.02.326-.062a.782.782 0 0 0 .436-.446.923.923 0 0 0 .063-.346.924.924 0 0 0-.063-.347.78.78 0 0 0-.436-.446.846.846 0 0 0-.326-.062Zm0-.548c.203 0 .39.036.563.107a1.352 1.352 0 0 1 .744.739c.072.17.108.357.108.557 0 .2-.036.386-.107.557a1.354 1.354 0 0 1-.745.739c-.172.071-.36.107-.563.107-.203 0-.39-.036-.563-.107a1.362 1.362 0 0 1-.447-.295 1.371 1.371 0 0 1-.294-.444 1.433 1.433 0 0 1-.107-.557c0-.2.035-.386.107-.557a1.351 1.351 0 0 1 .741-.739c.172-.072.36-.107.563-.107Zm-14.78 1.394c0-.467.3-.85.793-.85.47 0 .787.367.787.85s-.317.85-.787.85c-.492 0-.793-.384-.793-.85Zm2.116 0v-1.327h-.568v.322c-.181-.24-.454-.39-.826-.39-.733 0-1.307.584-1.307 1.395 0 .81.574 1.394 1.307 1.394.372 0 .645-.15.826-.39v.323h.568v-1.327Zm-3.204 1.327v-1.666c0-.627-.394-1.05-1.028-1.055-.333-.006-.678.1-.918.472-.18-.294-.466-.472-.865-.472-.278 0-.552.083-.765.394v-.327h-.569v2.654h.574v-1.47c0-.461.252-.706.64-.706.377 0 .569.25.569.7v1.477h.574V13.81c0-.461.263-.706.64-.706.388 0 .574.25.574.7v1.477h.574Z"/></svg>