<svg xmlns="http://www.w3.org/2000/svg" fill="none" viewBox="0 0 40 27"><rect width="40" height="26" y=".949" fill="#F4F5FF" rx="2.518"/><path fill="#FF5F00" d="M23.491 20.34h-6.999V7.564h7V20.34Z"/><path fill="#EB001B" d="M16.94 13.95c0-2.59 1.195-4.9 3.055-6.387a7.888 7.888 0 0 0-4.943-1.737c-4.418 0-8 3.637-8 8.125 0 4.487 3.582 8.125 8 8.125 1.866 0 3.583-.65 4.943-1.738a8.157 8.157 0 0 1-3.055-6.387Z"/><path fill="#F79E1B" d="M32.931 13.95c0 4.488-3.58 8.126-7.998 8.126a7.89 7.89 0 0 1-4.945-1.738 8.156 8.156 0 0 0 3.056-6.387c0-2.592-1.195-4.9-3.056-6.388a7.89 7.89 0 0 1 4.945-1.737c4.417 0 7.998 3.637 7.998 8.125Z"/><path fill="#fff" d="M13.072 14.002c0-.355.23-.646.603-.646.358 0 .6.279.6.646 0 .368-.242.647-.6.647-.374 0-.603-.292-.603-.647Zm1.61 0v-1.01h-.432v.246a.75.75 0 0 0-.628-.296c-.558 0-.995.444-.995 1.06 0 .617.437 1.06.995 1.06a.75.75 0 0 0 .628-.295v.245h.432v-1.01Zm14.608 0c0-.355.229-.646.603-.646.358 0 .599.279.599.646 0 .368-.241.647-.6.647-.373 0-.602-.292-.602-.647Zm1.61 0v-1.82h-.433v1.056a.75.75 0 0 0-.628-.296c-.557 0-.994.444-.994 1.06 0 .617.437 1.06.994 1.06a.75.75 0 0 0 .628-.295v.245h.433v-1.01Zm-10.852-.667c.278 0 .457.177.503.49h-1.032c.046-.292.22-.49.529-.49Zm.008-.393c-.582 0-.99.43-.99 1.06 0 .642.424 1.06 1.02 1.06.299 0 .573-.075.814-.282l-.211-.326a.942.942 0 0 1-.579.211c-.279 0-.532-.13-.595-.494h1.477c.004-.055.008-.11.008-.169-.004-.63-.387-1.06-.944-1.06Zm5.22 1.06c0-.355.229-.646.603-.646.358 0 .599.279.599.646 0 .368-.241.647-.599.647-.374 0-.603-.292-.603-.647Zm1.61 0v-1.01h-.433v.246a.75.75 0 0 0-.628-.296c-.557 0-.994.444-.994 1.06 0 .617.437 1.06.994 1.06a.75.75 0 0 0 .628-.295v.245h.433v-1.01Zm-4.051 0c0 .613.42 1.06 1.06 1.06.3 0 .5-.067.715-.24l-.207-.355a.865.865 0 0 1-.52.182c-.346-.005-.6-.258-.6-.647s.254-.642.6-.646c.187 0 .357.063.52.181l.207-.354c-.216-.174-.415-.241-.715-.241-.64 0-1.06.447-1.06 1.06Zm5.573-1.06a.585.585 0 0 0-.524.296v-.245h-.429v2.019h.433V13.88c0-.334.141-.52.424-.52.088 0 .18.013.27.05l.134-.413a.908.908 0 0 0-.308-.055Zm-11.588.211c-.208-.14-.495-.211-.81-.211-.505 0-.829.245-.829.646 0 .33.242.533.686.596l.204.03c.238.033.35.097.35.21 0 .157-.159.246-.454.246-.3 0-.515-.097-.661-.211l-.204.341c.237.178.537.262.861.262.574 0 .907-.274.907-.659 0-.354-.262-.54-.695-.603l-.204-.03c-.187-.026-.337-.063-.337-.199 0-.148.142-.236.379-.236.254 0 .5.097.62.173l.187-.355Zm5.578-.211a.584.584 0 0 0-.524.296v-.245h-.429v2.019h.433V13.88c0-.334.141-.52.424-.52.088 0 .179.013.27.05l.134-.413a.908.908 0 0 0-.308-.055Zm-3.69.05h-.706v-.612h-.438v.613h-.403v.4h.403v.922c0 .469.18.748.69.748.188 0 .404-.06.542-.157l-.125-.376a.791.791 0 0 1-.383.114c-.216 0-.287-.135-.287-.338v-.912h.707v-.401Zm-6.463 2.02v-1.268c0-.477-.3-.798-.782-.802-.254-.005-.516.076-.7.36a.727.727 0 0 0-.656-.36.654.654 0 0 0-.582.3v-.25h-.433v2.02h.436v-1.12c0-.35.192-.536.487-.536.287 0 .433.19.433.532v1.124h.437v-1.12c0-.35.2-.536.486-.536.295 0 .437.19.437.532v1.124h.437Z"/></svg>