<svg xmlns="http://www.w3.org/2000/svg" fill="none" viewBox="0 0 40 27"><rect width="40" height="26" y="1.354" fill="#F4F5FF" rx="2.518"/><path fill="#E21836" d="M12.22 6.229h6.384c.892 0 1.446.737 1.238 1.645L16.87 20.835c-.21.905-1.102 1.643-1.994 1.643H8.492c-.89 0-1.445-.738-1.237-1.643l2.973-12.96c.208-.909 1.1-1.646 1.992-1.646Z"/><path fill="#00447C" d="M18.073 6.229h7.342c.891 0 .49.737.28 1.645l-2.972 12.961c-.209.905-.144 1.643-1.037 1.643h-7.341c-.893 0-1.446-.738-1.236-1.643l2.972-12.96c.21-.909 1.1-1.646 1.992-1.646Z"/><path fill="#007B84" d="M25.124 6.229h6.384c.892 0 1.447.737 1.237 1.645l-2.972 12.961c-.21.905-1.102 1.643-1.995 1.643h-6.381c-.893 0-1.447-.738-1.238-1.643l2.973-12.96c.208-.909 1.099-1.646 1.992-1.646Z"/><path fill="#FEFEFE" d="M13.888 10.382c-.657.007-.85 0-.913-.015-.024.115-.466 2.19-.468 2.192-.095.42-.165.72-.4.913a.707.707 0 0 1-.471.167c-.292 0-.461-.147-.49-.426l-.005-.095.088-.566s.466-1.891.549-2.141l.006-.029c-.905.008-1.065 0-1.076-.015-.006.02-.029.138-.029.138l-.474 2.132-.041.18-.079.592c0 .175.034.318.101.44.217.383.834.441 1.183.441.45 0 .871-.097 1.156-.274.495-.297.625-.761.74-1.174l.054-.212s.479-1.964.56-2.22c.003-.014.004-.021.009-.028Zm1.63 1.585a1.25 1.25 0 0 0-.517.123c-.069.036-.133.077-.202.118l.062-.227-.034-.038c-.402.082-.492.094-.863.147l-.031.02c-.043.364-.082.637-.242 1.35-.06.263-.124.529-.187.791l.017.033a9.1 9.1 0 0 1 .827-.014l.026-.03c.042-.219.048-.27.141-.713.044-.21.135-.67.18-.835a.61.61 0 0 1 .242-.077c.185 0 .163.164.155.23-.007.11-.075.468-.144.776l-.046.2c-.033.146-.068.289-.1.434l.014.03c.375-.021.49-.021.81-.015l.037-.03c.058-.341.075-.433.178-.93l.051-.228c.1-.447.151-.674.075-.858-.08-.207-.273-.257-.45-.257Zm1.82.468c-.2.039-.327.065-.453.081-.125.02-.247.04-.44.066l-.015.014-.014.012c-.02.145-.034.271-.061.42a7.85 7.85 0 0 1-.114.577 2.302 2.302 0 0 1-.09.325c-.025.067-.052.133-.101.321l.011.017.01.016c.18-.008.298-.014.419-.016.12-.004.246 0 .44.002l.017-.015.018-.015c.028-.17.032-.216.05-.298.017-.09.046-.212.117-.54.034-.155.072-.308.107-.466l.112-.465-.006-.019-.007-.017Zm.004-.631c-.181-.109-.499-.074-.713.076-.213.147-.238.355-.057.465.178.106.497.074.71-.077.212-.15.239-.357.06-.464Zm1.096 2.514c.366 0 .742-.102 1.024-.407.218-.246.318-.614.352-.765.113-.501.025-.735-.085-.878-.167-.217-.462-.287-.769-.287-.184 0-.623.019-.966.34-.246.231-.36.545-.428.847-.07.306-.15.859.351 1.065.154.067.377.085.52.085Zm-.03-1.128c.085-.38.185-.698.44-.698.2 0 .214.237.125.618-.016.085-.089.399-.187.533-.069.099-.15.159-.24.159-.027 0-.186 0-.189-.24-.001-.119.023-.24.052-.372Zm2.322 1.08.029-.03c.04-.219.047-.27.137-.713.045-.21.138-.67.182-.835.083-.039.163-.077.243-.077.184 0 .162.164.154.23-.006.11-.074.468-.144.776l-.044.2c-.033.146-.07.289-.102.434l.014.03c.376-.021.486-.021.808-.015l.04-.03c.056-.341.071-.433.177-.93l.05-.228c.101-.447.152-.674.078-.858-.083-.207-.277-.257-.451-.257a1.24 1.24 0 0 0-.517.123 3.38 3.38 0 0 0-.2.118l.057-.227-.031-.038c-.402.082-.494.094-.864.147l-.029.02c-.045.364-.082.636-.241 1.35-.061.263-.124.529-.188.791l.017.033c.381-.02.495-.02.825-.014Zm2.765.014.165-.812s.12-.51.127-.528c0 0 .038-.054.076-.075h.055c.523 0 1.113 0 1.576-.345.314-.237.53-.587.625-1.013a1.54 1.54 0 0 0 .044-.352.75.75 0 0 0-.125-.45c-.236-.336-.706-.342-1.248-.344l-.268.002c-.694.009-.972.006-1.087-.008l-.028.143-.248 1.172-.623 2.606c.606-.007.854-.007.959.004Zm.46-2.079.264-1.164.008-.06.004-.045.106.01.558.05c.215.084.304.302.242.587a.852.852 0 0 1-.436.584c-.176.09-.391.097-.613.097h-.143l.01-.059Zm1.647 1.007c-.07.303-.15.855.347 1.052.16.069.301.089.446.082.152-.009.294-.087.425-.198l-.035.138.022.03c.358-.016.47-.016.857-.013l.035-.027c.057-.338.11-.667.258-1.314.071-.31.143-.617.216-.925l-.011-.035a15.9 15.9 0 0 1-.893.147l-.03.025-.01.091a.553.553 0 0 0-.281-.234c-.172-.068-.574.02-.92.34-.243.228-.36.54-.426.841Zm.841.018c.086-.372.184-.688.44-.688.16 0 .246.152.229.41l-.047.208c-.025.111-.053.22-.08.33a.808.808 0 0 1-.094.194c-.066.095-.222.153-.312.153-.025 0-.183 0-.188-.235a1.637 1.637 0 0 1 .052-.372ZM30.836 12l-.031-.036a9.24 9.24 0 0 1-.832.144l-.027.027-.004.018-.001-.007c-.271.636-.264.499-.484.999l-.003-.061-.055-1.085-.035-.035c-.415.081-.425.094-.808.144l-.03.027c-.004.013-.004.027-.007.043l.003.005c.048.25.036.194.084.586.023.193.053.387.075.577.038.319.059.475.105.961-.259.434-.32.598-.57.98l.002.003-.175.282c-.02.03-.038.05-.064.059a.262.262 0 0 1-.115.017h-.097l-.145.488.496.009c.291-.002.474-.14.573-.326l.312-.543h-.005l.033-.038C29.24 14.78 30.836 12 30.836 12Zm-5.234 6.413h-.21l.778-2.616h.258l.082-.269.008.3c-.01.185.134.35.511.322h.436l.15-.504h-.164c-.095 0-.138-.024-.133-.076l-.008-.305h-.807v.002c-.26.006-1.04.025-1.198.068-.19.05-.392.197-.392.197l.079-.27h-.755l-.157.535-.79 2.656h-.153l-.15.5h1.504l-.05.167h.74l.05-.167h.208l.163-.54Zm-.617-2.084a3.345 3.345 0 0 0-.346.137l.2-.669h.6l-.145.488s-.185.01-.31.044Zm.011.955s-.188.024-.312.053a3.033 3.033 0 0 0-.352.156l.207-.696h.603l-.146.487Zm-.336 1.136h-.602l.175-.588h.6l-.173.587Zm1.45-1.623h.867l-.125.41h-.879l-.132.448h.77l-.583.833a.24.24 0 0 1-.118.1.34.34 0 0 1-.156.046h-.214l-.146.49h.558c.29 0 .461-.133.588-.31l.399-.555.086.564a.264.264 0 0 0 .143.192c.056.028.114.077.195.084.088.004.151.007.193.007h.274l.165-.55h-.108c-.062 0-.17-.01-.188-.03-.018-.024-.018-.06-.028-.117l-.087-.565h-.356l.156-.189h.878l.135-.448h-.813l.127-.41h.81l.15-.506h-2.414l-.148.506Zm-7.327 1.737.203-.684h.832l.152-.51h-.833l.127-.42h.814l.15-.493h-2.036l-.147.493h.462l-.123.42h-.464l-.154.518h.463l-.27.905c-.036.12.017.166.051.221a.22.22 0 0 0 .149.11c.082.02.137.03.213.03h.938l.168-.563-.416.058c-.08 0-.303-.01-.279-.085Zm.096-3.275-.211.387a.447.447 0 0 1-.122.161.404.404 0 0 1-.189.03h-.11l-.147.494h.365a.812.812 0 0 0 .375-.098c.07-.037.088-.016.142-.068l.123-.109h1.14l.152-.515h-.835l.146-.282h-.83Zm1.684 3.285c-.02-.029-.005-.079.024-.183l.312-1.049h1.11c.161-.002.278-.004.354-.01a.718.718 0 0 0 .267-.09c.1-.056.15-.115.194-.182a1.56 1.56 0 0 0 .191-.441l.392-1.327-1.15.007s-.355.053-.512.112a2.082 2.082 0 0 0-.382.248l.104-.364h-.711l-.996 3.354c-.035.13-.059.224-.064.281-.002.061.076.122.126.168.06.045.148.038.232.045.09.007.216.011.39.011h.547l.167-.575-.489.047a.128.128 0 0 1-.106-.052Zm.538-1.94h1.165l-.074.236c-.01.006-.036-.012-.154.003h-1.01l.073-.239Zm.233-.79h1.175l-.085.284s-.553-.006-.642.01c-.39.07-.618.281-.618.281l.17-.575Zm.884 1.816a.126.126 0 0 1-.046.073c-.024.015-.062.02-.12.02h-.166l.01-.287h-.69l-.028 1.404c-.002.102.008.16.081.207.073.059.298.066.6.066h.433l.157-.525-.377.02-.125.008a.141.141 0 0 1-.052-.032c-.016-.016-.043-.007-.038-.108l.003-.36.395-.016c.213 0 .304-.07.382-.138.074-.064.099-.138.127-.238l.066-.319h-.543l-.07.225Z"/></svg>