<svg xmlns="http://www.w3.org/2000/svg" fill="none" viewBox="0 0 40 27"><rect width="40" height="26" y=".949" fill="#F4F5FF" rx="2.518"/><path fill="#00579F" d="M17.973 18.446h-2.462l1.54-8.966h2.463l-1.54 8.966ZM26.9 9.7a6.402 6.402 0 0 0-2.209-.382c-2.432 0-4.144 1.22-4.155 2.966-.02 1.288 1.226 2.003 2.158 2.433.953.439 1.277.725 1.277 1.116-.01.6-.77.878-1.479.878-.983 0-1.51-.143-2.31-.477l-.325-.144-.344 2.013c.577.248 1.641.468 2.746.477 2.584 0 4.266-1.202 4.286-3.062.01-1.02-.648-1.803-2.067-2.442-.861-.41-1.389-.687-1.389-1.106.01-.382.447-.773 1.419-.773.8-.019 1.389.162 1.834.344l.223.095L26.9 9.7Zm3.273 5.57.984-2.509c-.01.02.202-.524.323-.858l.173.772s.466 2.147.567 2.595h-2.047Zm3.04-5.79h-1.905c-.587 0-1.033.162-1.287.744l-3.658 8.222h2.584l.517-1.345h3.162c.07.315.294 1.345.294 1.345h2.28L33.213 9.48Zm-19.759 0-2.412 6.114-.263-1.24c-.446-1.43-1.844-2.985-3.405-3.758l2.21 7.84h2.603l3.871-8.956h-2.604Z"/><path fill="#FAA61A" d="M8.802 9.48H4.84l-.04.181c3.09.744 5.137 2.538 5.978 4.694l-.86-4.121c-.143-.573-.579-.735-1.116-.754Z"/></svg>