<svg xmlns="http://www.w3.org/2000/svg" viewBox="0 0 120 56">
    <symbol id="logo" viewBox="0 0 120 56">
        <g fill="currentColor" clip-path="url(#a)">
            <path d="M59.527 23.325c-13.667.181-19.574 1.438-23.743 2.649.074.215.12.43.12.639v.164c-.069.973-.126 1.896-.177 2.773.369-.125.754-.26 1.167-.402 4.01-1.398 10.382-3.616 21.574-4.25.294-.69.646-1.21 1.06-1.573ZM32.63 11.515c-.85-2.048-2.43-3.09-4.685-3.09-1.025 0-2.01.238-2.928.708-1.591.81-2.514 1.986-2.752 3.554v.119c0 .13.022.266.073.424.227.617.652.764.991.747h.034c-.436.419-.674 1.279-.719 2.598v.01c0 1.563.363 2.887 1.082 3.934.855 1.233 2.005 1.862 3.42 1.862 1.638-.023 3.06-.759 4.232-2.202 1.212-1.556 1.83-3.446 1.83-5.625 0-1.114-.199-2.133-.584-3.027l.005-.011Zm-8.304 1.42c.074-.27.176-.542.3-.786.499-.894 1.218-1.33 2.198-1.33.697 0 1.303.244 1.84.747.918.883 1.388 2.241 1.388 4.04 0 .9-.152 1.75-.453 2.52-.55 1.425-1.387 2.115-2.565 2.115a1.07 1.07 0 0 1-.47-.118c-.663-.306-.986-.906-.986-1.834 0-.504.085-1.103.25-1.765.05-.148.073-.363.073-.651 0-.328-.08-.674-.238-1.041-.385-.764-.935-1.155-1.665-1.155 0 0-.046.006-.068.011.164-.17.294-.418.408-.747l-.012-.005ZM40.632 21.52c-.023-.09-.045-.243-.08-.435-.254-1.517-.43-2.145-.877-2.145-.09 0-.176.017-.26.04-.312.096-.493.503-.754 1.171-.096.238-.232.588-.323.707a1.4 1.4 0 0 1-.255-.022c-.204-.045-.866-.566-.866-5.41 0-.781.034-1.907.107-3.356.686-.124 2.011-.458 2.045-1.51 0-.13-.023-.267-.068-.391-.193-.764-.623-.923-.952-.923a.765.765 0 0 0-.34.09c-.209.114-.396.21-.549.29.17-2.349.374-4.352.629-5.954l.034-.067a.605.605 0 0 0 .045-.204.894.894 0 0 0-.124-.436c-.29-.504-.827-.758-1.62-.758-.782.068-1.28.368-1.478.888l-.017.068c-.3 2.394-.856 10.497-.856 11.057 0 5.552.98 8.438 3.008 8.823.47.079.9.124 1.285.124.306 0 .782-.04 1.467-.119a.801.801 0 0 0 .21-.05c.294-.13.64-.43.64-1.144 0-.096-.011-.198-.034-.328l-.017-.006ZM46.217 42.351c-.227-.673-.657-.815-.974-.815-.21 0-.46.125-.793.408a1.565 1.565 0 0 1-.193.164 30.7 30.7 0 0 0-.64.594c-.844.792-1.716 1.613-2.424 1.613-1.325-.017-1.813-2.156-1.83-4.148 0-1.387.261-2.71.77-3.922l.222-.515c.498-1.171.923-2.178 1.523-2.178.742.062.963.186 1.026.26.35.39.566 1.132.758 1.788.068.227.13.441.193.628l.023.051c.243.419.549.645.923.668.085 0 .175-.011.323-.051.317-.141.696-.458.696-1.171 0-.193-.028-.351-.068-.464a5.13 5.13 0 0 0-.906-1.72c-.997-1.2-2.288-1.811-3.851-1.811-1.195.022-2.277.747-3.212 2.161-1.104 1.726-1.665 3.843-1.665 6.282 0 1.194.187 2.24.555 3.117.753 1.777 2.141 2.677 4.123 2.677a6.5 6.5 0 0 0 1.36-.153c1.608-.345 2.911-1.114 3.897-2.308.124-.193.198-.436.22-.742 0-.113-.01-.237-.045-.413h-.011ZM57.07 42.322c-.227-.673-.658-.815-.975-.815-.21 0-.459.125-.793.408a1.58 1.58 0 0 1-.193.164c-.288.254-.572.543-.86.831-.77.77-1.564 1.568-2.204 1.568-1.15-.017-1.727-1.884-1.818-3.831 1.195.175 2.266.113 3.24-.181 2.13-.668 3.206-2.275 3.206-4.776 0-.843-.25-1.596-.737-2.23-.781-1.052-1.937-1.59-3.443-1.59-1.4.023-2.6.611-3.574 1.754-1.297 1.58-1.954 3.78-1.954 6.542 0 1.132.164 2.133.493 2.994.753 1.839 2.157 2.767 4.185 2.767.43 0 .89-.051 1.36-.153 1.608-.345 2.91-1.11 3.896-2.309.125-.192.198-.436.221-.741 0-.113-.011-.238-.045-.413l-.006.011Zm-6.667-4.182a9.45 9.45 0 0 1 .436-1.516c.09-.221.17-.436.255-.651.526-1.37.985-2.547 1.931-2.547.657.017 1.614 1.25 1.631 2.383-.017 1.68-.838 3.395-2.622 3.429-.102 0-.39-.243-.583-.402-.312-.26-.657-.554-1.048-.696ZM61.447 37.252v-.61c.187-.386.391-.827.595-1.308 1.484-3.458 2.237-6.287 2.237-8.42-.023-2.145-1.087-3.3-3.087-3.345-.113 0-.238.012-.396.04-1.818.458-2.662 4.091-2.662 11.442 0 8.053.923 11.81 2.905 11.833.108 0 .238-.023.414-.085.532-.243.815-.68.815-1.262 0-.164-.056-.356-.17-.588-.436-.98-.65-3.566-.65-7.697Zm.147-5.608c.006-.13.017-.26.029-.384.198-3.74.39-4.924.498-5.291.102.124.164.401.176.798 0 1.556-.232 3.191-.697 4.878h-.006ZM75.827 34.564a.37.37 0 0 0 .04-.164c0-.113-.029-.237-.08-.367-.22-.566-.759-.855-1.602-.855-.691.04-1.178.294-1.439.736-.991-.98-2.152-1.483-3.472-1.5-1.382.023-2.628.73-3.698 2.117-1.212 1.573-1.83 3.457-1.83 5.59 0 1.194.204 2.28.612 3.237.776 1.755 1.993 2.643 3.619 2.643h.38c1.483-.13 2.797-.849 3.919-2.14.05.312.119.72.204 1.206.09.408.413.9 1.455.928.221 0 .448-.034.663-.096.929-.238 1.127-.747 1.127-1.126 0-.102-.011-.204-.045-.328-.34-.968-.516-2.083-.516-3.322 0-1.08.159-2.761.47-5.002.097-.696.16-1.217.204-1.55l-.01-.007Zm-3.772 5.49c-.742 3.66-2.334 4.113-2.95 4.113-.205 0-.414-.033-.624-.101-.906-.289-1.467-1.806-1.467-3.95v-.464c-.011-1.138-.028-2.558.47-3.464.646-1.17 1.864-2.031 2.69-1.935 1.841.21 2.306 3.684 1.875 5.8h.006ZM119.626 32.38c-1.105-3.43-4.344-5.529-10.478-6.644-.555.555-1.427.866-2.487.866-.81 0-1.636-.181-2.395-.526a5.32 5.32 0 0 1-1.598-1.11c-9.81-.673-18.113-1.114-25.181-1.374l1.093.18c.425.086.89.42.986.89a.896.896 0 0 1-.233.786c5.42.509 11.487 1.318 18.272 2.5.04-.35.073-.695.119-1.035l.028-.136c.176-.61.708-1.567 2.39-1.612 1.654 0 2.255.854 2.464 1.37.096.242.147.474.147.7v.188c-.028.418-.068.973-.124 1.635 4.684 1.37 6.575 3.203 8.042 5.789 2.102 3.718 2.26 7.47.448 10.848-1.886 3.52-5.851 5.32-8.841 6.208-5.262 1.567-11.102 1.364-13.254.187-1.654-.9-1.342-2.887-.872-5.891.119-.781.26-1.658.374-2.592l.011-.08c.204-1.357.306-2.715.306-4.068 0-.849-.04-1.67-.119-2.445-.334-3.084-1.172-4.583-2.56-4.583-.64.022-1.439.441-2.441 1.273-1.348 1.126-2.47 2.524-3.353 4.16.068-.555.147-1.19.249-1.908.08-.645.136-1.126.181-1.477v-.119c0-.13-.028-.266-.079-.401-.227-.544-.748-.821-1.575-.821-.781.045-1.302.362-1.557.99-.357 1.72-.538 3.91-.538 6.508 0 1.505.141 2.988.419 4.425.09.39.413.866 1.456.9.198 0 .396-.023.6-.068.957-.238 1.155-.747 1.155-1.132 0-.085-.011-.175-.028-.266 0-.237.023-.503.057-.792.21-1.913.934-3.95 2.146-6.05.952-1.652 2.51-2.92 2.838-2.92.634.018.776 2.185.827 3 .09 1.38-.227 2.275-.59 3.31-.248.714-.673 2.768-.866 3.701-1.229 6.05 1.688 8.608 4.231 9.994 1.337.73 2.95 1.098 4.792 1.098 5.097 0 11.99-2.977 17.569-7.589 6.474-5.347 9.453-11.284 7.975-15.873l-.006.006Z"/>
            <path d="M103.971 46.137a.473.473 0 0 0-.521-.283c-.294.05-.521.068-.685.05h-.029c-.809 0-1.002-.707-1.2-1.782a6.599 6.599 0 0 0-.131-.617c-.158-1.313-.237-2.8-.237-4.42 0-1.912.158-4.838.47-8.697.119-1.358.198-2.354.238-3v-.146c0-.114-.029-.238-.08-.374-.226-.549-.77-.826-1.625-.826-1.07.028-1.439.526-1.57.985a74.921 74.921 0 0 0-.52 7.062 5.357 5.357 0 0 0-3.127-1.03c-1.353.023-2.543.787-3.534 2.28-1.065 1.63-1.609 3.566-1.609 5.755 0 .968.136 1.862.397 2.654.668 1.947 1.943 2.932 3.778 2.932.249 0 .51-.023.787-.062 1.325-.221 2.492-.895 3.483-2.004-.005 1.12.448 2.026 1.292 2.541a3.168 3.168 0 0 0 1.648.442c.861 0 1.79-.306 2.622-.895a.46.46 0 0 0 .159-.56l-.006-.005Zm-5.879-5.518c-.175.764-.521 1.85-.832 2.405-.652 1.138-1.394 1.715-2.204 1.715-.226 0-.441-.034-.651-.108-.861-.271-1.382-1.59-1.382-3.52a8.13 8.13 0 0 1 .799-3.53c.6-1.268 1.263-2.445 2.055-2.575l.017.034c.193.333.386.639.635.78.793.42 1.297.844 1.5 1.257v.022c0 1.528.018 2.711.057 3.509l.006.011ZM37.981 46.544a.422.422 0 0 0-.272-.209c-.3-.08-.668.142-1.093.39-.204.125-.55.329-.685.329-.98 0-1.139-1.336-1.218-2.7l-.011-.215c0-.102-.011-.203-.034-.283-.198-1.2-.187-2.325-.176-4.034 0-.464.006-.974.006-1.54 0-2.32.175-6.196.532-11.577v-.091c0-.13-.028-.266-.079-.402-.227-.549-.77-.815-1.597-.82-.725.09-1.235.407-1.512.945l-.023.067c-.515 2.23-.776 5.076-.776 8.46 0 2.756.181 5.948.544 9.468.045 2.122 1.19 3.78 3.052 4.436.493.176.997.255 1.462.255.787 0 1.478-.238 1.858-.685.232-.277.543-.871.022-1.794ZM28.325 29.2c-2.945.339-3.886-.103-5.194-1.116-2.118-1.635-2.248-4.657-2.248-6.343 0-.22.017-.651.034-.883.158-4.787.237-7.487.237-8.256 0-7.628-.951-11.193-2.99-11.216h-.012c-1.093.023-2.13 1.188-3.177 3.57a23.762 23.762 0 0 0-.759 2.423c-.56-4.103-1.461-6.044-2.81-6.084-.979.017-1.868.923-2.69 2.762.023-.374.035-.674.035-.883v-.09c0-.12-.023-.238-.063-.357a2.044 2.044 0 0 0-.776-1.392C7.114.701 5.834.565 4.106.933 2.266 1.318.93 2.49.323 4.227-.255 5.885-.045 7.848.82 8.89c0 0 2.492 1.295 3.302-.034.306-.493.17-1.483.034-2.536-.09-.707-.198-1.505-.09-1.81.135-.38.662-.844.894-.793.097.017.25.25.216.951-.29 1.884-.43 4.125-.43 6.655 0 2.96-.114 7.786.622 10.242.29.951 1.4 1.285 1.875 1.285.13 0 .26-.017.39-.051 1.15-.306 1.7-1.867 1.723-1.935l.215-.628-.6.277c-.165.073-.295.096-.369.062-.062-.034-.096-.13-.107-.192-.165-1.28-.357-2.966-.295-4.98.068-2.168.442-4.193.793-6.038.76-4.08 1.439-4.861 1.739-4.991.215.424.629 2.58.793 12.625 0 1.33.08 2.62.453 3.305.3.554 1.331 1.109 1.982.956 1.184-.272 1.75-1.879 1.773-1.947l.215-.628-.6.277c-.193.09-.351.12-.43.074-.057-.028-.074-.113-.08-.113l-.005-1.398c.017-.685.05-1.398.085-2.14.288-4.232.86-7.486 1.676-9.636.515-.968.827-1.273.957-1.37.108.3.306 1.42.306 5.54 0 2.394-.08 5.812-.238 10.158-.023.81-.028 1.256-.028 1.336v.04c-.006.418.023 4.78 2.594 7.469 2.005 2.088 4.53 2.79 8.439 2.337a28.417 28.417 0 0 0 1.642-.243c.069-.945.16-1.834.278-2.666-.69.402-1.422.736-2.243.832l.023.017ZM45.962 8.426c-1.025 0-2.01.237-2.928.707-1.591.81-2.515 1.986-2.747 3.554v.119c0 .13.023.271.074.424.226.617.674.764.99.747h.035c-.436.419-.674 1.279-.72 2.597v.012c0 1.562.363 2.886 1.082 3.933.856 1.233 2.005 1.861 3.421 1.861 1.637-.022 3.059-.758 4.231-2.201 1.212-1.556 1.83-3.446 1.83-5.625 0-1.115-.199-2.133-.584-3.027-.85-2.049-2.424-3.09-4.684-3.09v-.011Zm-3.619 4.51c.074-.272.176-.544.3-.787.499-.894 1.218-1.33 2.198-1.33.697 0 1.303.244 1.84.747.918.883 1.388 2.241 1.388 4.04 0 .9-.153 1.75-.453 2.519-.55 1.426-1.388 2.116-2.566 2.116a1.07 1.07 0 0 1-.47-.119c-.662-.305-.985-.905-.985-1.833 0-.504.085-1.11.249-1.766.051-.147.074-.362.074-.65 0-.334-.08-.68-.238-1.042-.385-.764-.935-1.154-1.665-1.154 0 0-.046.006-.068.011.164-.17.294-.418.407-.747l-.01-.005ZM61.227 9.014c-.708.023-1.518.47-2.487 1.376-1.172 1.143-2.197 2.574-3.053 4.266.068-.622.153-1.335.255-2.15.08-.707.136-1.228.181-1.59v-.09c0-.13-.028-.267-.079-.402-.204-.499-.651-.402-.974-.329-.17.034-.368.08-.6.08-.782.045-1.303.362-1.558.99-.39 1.89-.538 3.497-.538 5.936 0 1.483.142 2.96.42 4.391.09.408.413.9 1.455.928.204 0 .419-.034.628-.096.93-.238 1.128-.747 1.128-1.126 0-.085-.012-.175-.029-.266.012-.385.17-4.555 1.49-6.576 1.268-1.952 1.858-2.365 2.107-2.365.226.011.26.606.266.78 0 .25-.057.555-.164.918-.425 1.307-.425 1.477-.425 1.562 0 .101.011.203.034.282.142.815 2.158.912 2.197.912.227-.029.442-.153.697-.408.533-.724.793-1.964.793-3.797-.023-2.094-.6-3.18-1.739-3.226h-.005ZM82.737 8.426c-1.025 0-2.01.237-2.928.707-1.591.81-2.514 1.986-2.752 3.554v.119c0 .13.022.271.079.424.227.617.646.764.991.747h.034c-.436.419-.674 1.279-.72 2.597v.012c0 1.562.363 2.886 1.083 3.933.855 1.233 2.005 1.861 3.42 1.861 1.637-.022 3.059-.758 4.231-2.201 1.213-1.556 1.83-3.446 1.83-5.625 0-1.115-.198-2.133-.584-3.027-.85-2.049-2.424-3.09-4.684-3.09v-.011Zm-3.619 4.51a4.5 4.5 0 0 1 .295-.787c.498-.894 1.223-1.33 2.203-1.33.697 0 1.303.244 1.84.747.918.883 1.388 2.241 1.388 4.04 0 .9-.152 1.75-.453 2.519-.55 1.426-1.387 2.116-2.565 2.116a1.07 1.07 0 0 1-.47-.119c-.663-.305-.986-.905-.986-1.833 0-.504.085-1.11.25-1.766.05-.147.073-.362.073-.65 0-.329-.08-.674-.238-1.042-.385-.764-.935-1.154-1.665-1.154 0 0-.046.006-.068.011.164-.17.294-.418.408-.747l-.012-.005ZM117.066 18.787c-.226-.674-.657-.815-.974-.815-.209 0-.459.124-.787.407a1.59 1.59 0 0 1-.193.165c-.254.226-.509.475-.764.724-.799.775-1.631 1.584-2.3 1.584-1.223-.017-1.733-1.952-1.818-3.735 1.195.176 2.266.108 3.24-.18 2.129-.668 3.206-2.276 3.206-4.777 0-.843-.25-1.595-.737-2.23-.781-1.052-1.937-1.59-3.443-1.59-1.394.023-2.6.612-3.574 1.755-1.297 1.579-1.954 3.78-1.954 6.542 0 1.131.164 2.133.493 2.993.753 1.84 2.157 2.767 4.185 2.767.431 0 .889-.05 1.359-.153 1.609-.345 2.912-1.109 3.897-2.308.125-.193.198-.436.221-.742 0-.113-.011-.237-.045-.413l-.012.006Zm-6.66-4.188a9.987 9.987 0 0 1 .436-1.51c.583-1.444 1.404-3.107 2.605-3.107.697.017 1.195 1.222 1.212 2.286-.017 1.488-.713 3.231-2.622 3.27-.119 0-.391-.197-.612-.356-.306-.22-.645-.464-1.019-.588v.005ZM77.465 24.61a2.264 2.264 0 0 1-.465.017h-.028c-.385 0-.697-.147-.94-.436-.448-.532-.533-1.414-.425-2.003l.056-.334c.284-1.714.425-3.53.425-5.398 0-.742-.022-1.472-.062-2.173-.272-3.645-1.116-5.416-2.594-5.416-.584.023-1.314.413-2.243 1.188-1.393 1.229-2.571 2.79-3.512 4.67l-.01-2.27c2.53-2.83 3.828-5.846 3.845-8.964 0-.379-.011-.673-.034-.888-.062-.566-.306-1.092-.725-1.573C70.107.345 69.353 0 68.51 0c-.17 0-.34.011-.521.034-2.52.441-3.744 4.187-3.744 11.448 0 3.395.159 6.785.47 10.067.023.288.09.56.198.798.318.746.878 1.143 1.62 1.143.097 0 .204-.012.329-.04.504-.119 1.104-.498 1.104-1.658 0 0-.022-.532 0-.707.187-1.766.963-4.431 2.18-6.768 1.128-2.224 1.706-2.468 1.893-2.468.254.006.85.346.872 3.31 0 1.223-.148 3.119-.442 5.626-.08.673-.13 1.126-.147 1.386v.102c-.09 1.483.498 2.716 1.608 3.395.538.329 1.15.487 1.784.487.697 0 1.416-.198 2.073-.588.21-.125.3-.38.221-.612a.511.511 0 0 0-.56-.345h.017ZM69.303 2.337c.034.056.13.26.147.922 0 2.049-.566 4.109-1.688 6.123.012-.226.029-.453.04-.679.317-5.506 1.121-6.304 1.5-6.36v-.006Z"/>
            <path d="M108.633 23.349c-.221-.397-.889-.34-1.886-.21-.278.034-.567.074-.708.062-.289 0-.482-.067-.595-.198-.238-.283-.153-.905-.045-1.477 0 0 .47-4.934.47-6.094 0-4.267-.821-6.366-2.526-6.412-.397 0-.827.12-1.28.357-1.099.577-2.124 1.652-3.059 3.197-.425-1.398-1.155-2.11-2.175-2.11-.549 0-1.144.226-1.755.667-.992.702-1.87 1.743-2.617 3.101.09-.849.215-1.862.34-2.824.056-.509-.204-1.222-.629-1.697-.283-.317-.589-.493-.946-.481-.991.124-2.078 5.342-2.078 7.498 0 1.482.141 2.96.419 4.39.09.408.413.9 1.455.929.198 0 .397-.023.6-.068.958-.238 1.156-.747 1.156-1.132 0-.09-.011-.175-.028-.266.005-1.245.447-2.83 1.303-4.713 1.478-3.254 1.982-3.588 2.084-3.61.017 0 .442.044.464 2.133 0 .701-.408 2.693-.702 4.142l-.113.56c-.04.226-.068.373-.085.453v.158a.905.905 0 0 0 .073.402c.227.549.748.826 1.575.826.781-.045 1.302-.362 1.552-.967.238-.776.277-1.743.453-2.836.164-1.013.629-1.98 1.065-2.93.872-1.936 2.288-3.583 2.622-3.606 0 0 .442.097.464 2.841 0 .94-.294 2.36-.6 3.865-.238 1.166-.487 2.366-.634 3.526l-.04.254c-.204 1.896.668 3.43 2.396 4.21.657.3 1.382.442 2.039.442.804 0 1.512-.215 1.903-.64.238-.26.566-.831.062-1.731l.006-.011Z"/>
        </g>
        <defs>
            <clipPath id="a">
                <path fill="#fff" d="M0 0h120v55.842H0z"/>
            </clipPath>
        </defs>
    </symbol>

    <symbol id="arrow" viewBox="0 0 14 9">
        <path stroke="currentColor" stroke-linecap="round" stroke-linejoin="round" stroke-width="2" d="m13 1.92-6 6-6-6"/>
    </symbol>
</svg>